<?xml version="1.0" standalone="no"?>
<!DOCTYPE svg PUBLIC "-//W3C//DTD SVG 20010904//EN"
 "http://www.w3.org/TR/2001/REC-SVG-20010904/DTD/svg10.dtd">
<svg version="1.0" xmlns="http://www.w3.org/2000/svg"
 width="207.000000pt" height="213.000000pt" viewBox="0 0 207.000000 213.000000"
 preserveAspectRatio="xMidYMid meet">

<g transform="translate(0.000000,213.000000) scale(0.100000,-0.100000)"
fill="#000000" stroke="none">
<path d="M985 2028 c-358 -128 -629 -315 -900 -620 -90 -102 -89 -96 -82 -232
4 -67 8 -132 11 -146 2 -14 7 -47 11 -75 9 -67 62 -269 85 -325 85 -205 191
-404 266 -496 18 -23 44 -44 56 -47 13 -2 66 -16 118 -30 159 -42 336 -60 523
-54 89 3 176 8 192 11 17 3 62 10 100 15 39 6 123 23 187 39 104 26 120 33
145 62 68 81 191 303 238 430 15 41 71 223 80 260 16 68 24 114 30 165 4 33 9
71 11 85 2 14 6 71 10 127 l6 101 -55 74 c-192 254 -512 487 -853 622 -109 43
-139 49 -179 34z m240 -257 c274 -67 492 -267 587 -541 31 -92 33 -100 33
-255 0 -140 -3 -169 -23 -235 -88 -278 -284 -474 -562 -562 -65 -20 -95 -23
-225 -23 -129 0 -160 3 -225 24 -277 86 -486 301 -566 581 -26 90 -26 326 -1
420 26 93 98 234 158 308 106 131 275 239 439 282 103 26 277 27 385 1z"/>
<path d="M1030 1716 c0 -2 6 -19 14 -37 7 -19 16 -43 20 -54 7 -18 8 -18 16
-4 12 21 -17 99 -37 99 -7 0 -13 -2 -13 -4z"/>
<path d="M904 1655 c8 -42 14 -55 28 -55 15 0 16 4 8 26 -6 14 -10 39 -10 55
0 21 -5 29 -18 29 -16 0 -17 -5 -8 -55z"/>
<path d="M954 1694 c12 -12 17 -28 14 -51 -4 -35 8 -39 26 -10 16 25 -4 71
-33 75 -23 4 -23 3 -7 -14z"/>
<path d="M1170 1691 c-1 -9 -7 -33 -14 -53 l-13 -38 33 -6 c18 -3 39 -4 46 -1
7 3 1 6 -14 6 -22 1 -28 6 -28 22 0 15 5 19 15 15 9 -3 15 0 15 10 0 8 -5 12
-11 8 -7 -4 -9 1 -7 12 3 14 12 18 32 17 37 -3 27 7 -18 17 -30 7 -36 5 -36
-9z"/>
<path d="M800 1663 c0 -29 53 -81 74 -73 13 4 7 14 -29 50 -39 38 -45 41 -45
23z"/>
<path d="M1292 1658 c2 -7 10 -34 17 -60 14 -49 24 -59 34 -34 8 20 -26 106
-41 106 -7 0 -12 -6 -10 -12z"/>
<path d="M680 1620 c0 -5 5 -10 11 -10 5 0 7 5 4 10 -3 6 -8 10 -11 10 -2 0
-4 -4 -4 -10z"/>
<path d="M650 1605 c-18 -22 -5 -45 28 -45 15 0 33 -5 40 -12 15 -15 26 -4 19
17 -4 8 -17 15 -31 15 -41 0 -58 10 -45 26 6 8 9 14 6 14 -2 0 -10 -7 -17 -15z"/>
<path d="M1407 1548 c-22 -31 -26 -43 -16 -49 9 -5 21 4 38 29 13 20 26 39 27
41 2 2 10 -2 19 -9 8 -7 15 -9 15 -5 0 10 -32 34 -45 34 -5 0 -23 -18 -38 -41z"/>
<path d="M564 1524 c3 -9 6 -20 6 -25 0 -4 7 -6 15 -3 8 4 15 1 15 -5 0 -6 -4
-11 -10 -11 -5 0 -10 -5 -10 -12 0 -7 7 -5 18 5 11 11 22 13 32 7 9 -5 19 -5
27 2 10 8 1 16 -38 34 -60 28 -63 29 -55 8z"/>
<path d="M677 1519 c7 -7 15 -10 18 -7 3 3 -2 9 -12 12 -14 6 -15 5 -6 -5z"/>
<path d="M1511 1466 c-48 -50 -29 -68 20 -20 22 21 39 42 39 46 0 18 -28 6
-59 -26z"/>
<path d="M471 1456 c-20 -21 -29 -36 -22 -40 6 -4 11 0 11 8 0 23 11 20 52
-14 24 -20 39 -26 43 -19 4 6 -9 24 -30 42 -35 28 -36 31 -19 44 10 7 13 13 8
13 -6 0 -25 -15 -43 -34z"/>
<path d="M737 1458 c4 -7 9 -37 9 -67 2 -58 18 -81 59 -81 45 0 63 26 67 95 2
39 -1 65 -7 65 -6 0 -9 -26 -7 -64 3 -56 1 -66 -16 -75 -41 -22 -54 -4 -50 70
l3 69 -33 0 c-24 0 -31 -3 -25 -12z"/>
<path d="M920 1455 c8 -10 11 -37 8 -80 -2 -36 0 -65 4 -65 4 0 8 28 8 63 l0
62 55 -60 c54 -59 54 -60 54 -30 0 42 -76 125 -114 125 -23 0 -26 -2 -15 -15z"/>
<path d="M1038 1458 c9 -9 15 -9 24 0 9 9 7 12 -12 12 -19 0 -21 -3 -12 -12z"/>
<path d="M1167 1463 c-14 -23 -26 -64 -17 -58 5 3 14 -4 20 -15 9 -17 8 -20
-9 -20 -11 0 -21 4 -23 9 -1 4 -13 -7 -25 -25 -12 -19 -18 -36 -12 -39 5 -4
13 5 19 19 14 37 67 37 76 1 6 -25 19 -31 40 -17 8 5 0 30 -26 81 -20 41 -40
70 -43 64z"/>
<path d="M1290 1393 c3 -43 8 -77 13 -75 4 1 13 2 20 2 8 0 12 22 12 75 0 73
-1 75 -25 75 -25 0 -25 0 -20 -77z"/>
<path d="M1596 1438 c-6 -20 -26 -106 -26 -113 0 -12 34 13 36 26 1 8 5 30 9
50 4 23 3 39 -4 43 -6 4 -13 1 -15 -6z"/>
<path d="M416 1383 c-11 -12 -6 -19 38 -50 37 -26 45 -29 50 -16 4 9 5 17 4
17 -2 1 -22 14 -44 28 -23 15 -45 24 -48 21z"/>
<path d="M1635 1308 c-49 -25 -48 -24 -41 -37 8 -12 107 30 103 43 -5 17 -21
15 -62 -6z"/>
<path d="M376 1311 c-4 -5 3 -7 14 -4 23 6 26 13 6 13 -8 0 -17 -4 -20 -9z"/>
<path d="M406 1285 c-14 -11 -23 -12 -33 -4 -8 7 -13 8 -13 1 0 -5 7 -16 16
-23 14 -11 21 -10 46 4 16 9 34 14 40 11 6 -4 9 -1 6 7 -6 20 -39 22 -62 4z"/>
<path d="M1029 1264 c-7 -9 -13 -39 -13 -70 0 -56 -8 -67 -25 -36 -9 15 -11
14 -20 -10 -5 -15 -9 -46 -9 -70 1 -35 7 -48 32 -70 17 -16 27 -28 21 -28 -11
0 16 -20 28 -20 4 0 7 5 7 12 0 7 15 25 32 40 28 24 31 31 21 46 -7 12 -8 24
-2 33 15 24 10 58 -16 99 -14 22 -25 45 -25 52 0 7 -4 19 -9 26 -6 10 -11 9
-22 -4z"/>
<path d="M1678 1259 c-10 -10 -30 -19 -45 -19 -22 0 -25 -2 -13 -10 35 -22 90
0 90 36 0 19 -11 16 -32 -7z"/>
<path d="M430 1230 c0 -5 4 -10 9 -10 6 0 13 5 16 10 3 6 -1 10 -9 10 -9 0
-16 -4 -16 -10z"/>
<path d="M337 1213 c-13 -12 -7 -23 13 -23 11 0 20 -7 20 -15 0 -18 -37 -20
-42 -3 -3 7 -7 3 -10 -8 -5 -19 2 -23 48 -36 43 -12 54 -13 54 -2 0 7 -10 16
-22 20 -22 7 -21 8 10 21 40 16 43 37 3 28 -21 -4 -30 -2 -34 9 -7 16 -28 21
-40 9z"/>
<path d="M1656 1178 c-24 -34 -19 -38 21 -17 22 11 46 16 58 13 17 -6 18 -5 6
10 -20 24 -67 20 -85 -6z"/>
<path d="M1720 1124 c-14 -8 -36 -12 -49 -8 -21 5 -23 3 -12 -10 18 -22 64
-20 84 2 30 33 20 40 -23 16z"/>
<path d="M300 1075 c0 -8 2 -15 4 -15 2 0 6 7 10 15 3 8 1 15 -4 15 -6 0 -10
-7 -10 -15z"/>
<path d="M398 1065 c2 -14 6 -25 8 -25 2 0 4 11 4 25 0 14 -4 25 -9 25 -4 0
-6 -11 -3 -25z"/>
<path d="M335 1060 c3 -5 11 -10 16 -10 6 0 7 5 4 10 -3 6 -11 10 -16 10 -6 0
-7 -4 -4 -10z"/>
<path d="M1739 1053 c10 -4 2 -17 -30 -44 l-44 -38 58 -1 c31 0 57 4 57 8 0 5
-15 7 -32 4 l-33 -4 28 29 c33 35 35 53 5 52 -15 0 -18 -3 -9 -6z"/>
<path d="M294 1038 c-9 -13 -5 -15 54 -26 42 -7 52 -7 52 4 0 8 -10 16 -22 18
-57 12 -79 13 -84 4z"/>
<path d="M540 1028 c0 -13 4 -30 10 -38 5 -9 5 -19 -2 -27 -34 -42 151 -264
246 -296 27 -10 60 -17 73 -17 12 0 37 -9 55 -20 45 -28 178 -28 228 -1 19 10
56 21 82 25 66 10 156 73 214 149 62 83 92 143 77 158 -9 9 -8 18 4 35 17 27
11 54 -12 54 -18 0 -68 -26 -113 -60 -44 -32 -76 -92 -59 -110 9 -10 9 -14 -1
-17 -6 -3 -10 -9 -7 -13 3 -5 -12 -27 -33 -49 -45 -47 -74 -56 -44 -13 32 45
63 112 57 122 -15 24 -56 8 -107 -40 -29 -27 -64 -53 -78 -56 -14 -4 -36 -13
-49 -21 -24 -15 -24 -15 -17 18 3 19 14 40 23 47 15 11 14 12 -11 12 -15 0
-25 4 -21 10 4 6 -5 10 -20 10 -15 0 -24 -4 -20 -10 4 -6 -5 -10 -19 -10 l-26
0 20 -20 c11 -11 20 -29 20 -40 0 -17 -3 -19 -19 -10 -11 5 -29 10 -39 10 -11
0 -44 23 -73 50 -60 55 -92 69 -121 51 -23 -14 -20 -16 -42 29 -15 31 -73 80
-95 80 -5 0 -14 7 -21 15 -7 8 -23 15 -36 15 -18 0 -24 -5 -24 -22z m225 -158
c4 -11 22 -41 41 -65 34 -45 28 -59 -14 -29 -26 18 -65 90 -57 104 10 16 23
11 30 -10z"/>
<path d="M1668 1043 c7 -3 16 -2 19 1 4 3 -2 6 -13 5 -11 0 -14 -3 -6 -6z"/>
<path d="M290 960 c0 -6 7 -10 15 -10 8 0 15 2 15 4 0 2 -7 6 -15 10 -8 3 -15
1 -15 -4z"/>
<path d="M333 917 c-18 -12 -32 -28 -33 -34 0 -17 0 -17 55 13 34 19 43 29 33
35 -17 11 -17 11 -55 -14z"/>
<path d="M1020 927 c0 -19 10 -27 25 -20 17 6 8 33 -11 33 -8 0 -14 -6 -14
-13z"/>
<path d="M1670 915 c0 -9 9 -15 21 -15 15 0 19 -5 15 -15 -3 -9 0 -15 10 -15
8 0 12 5 9 10 -3 6 5 10 19 10 22 0 44 16 35 24 -2 2 -28 6 -56 9 -42 5 -53 3
-53 -8z"/>
<path d="M1660 860 c0 -5 5 -10 11 -10 5 0 7 5 4 10 -3 6 -8 10 -11 10 -2 0
-4 -4 -4 -10z"/>
<path d="M1755 850 c-3 -5 -1 -10 4 -10 6 0 11 5 11 10 0 6 -2 10 -4 10 -3 0
-8 -4 -11 -10z"/>
<path d="M358 836 c-31 -6 -48 -15 -48 -24 0 -11 8 -13 38 -8 55 10 72 16 72
26 0 15 -13 16 -62 6z"/>
<path d="M1650 820 c0 -5 7 -10 16 -10 8 0 12 5 9 10 -3 6 -10 10 -16 10 -5 0
-9 -4 -9 -10z"/>
<path d="M1691 789 c-12 -13 -26 -19 -36 -15 -11 4 -15 2 -13 -6 8 -22 39 -21
63 2 14 13 29 19 36 15 7 -5 10 -3 7 6 -8 23 -35 22 -57 -2z"/>
<path d="M390 770 c-8 -5 -12 -10 -8 -10 4 0 -1 -15 -12 -32 -11 -18 -20 -39
-20 -46 0 -26 21 -7 50 46 29 50 26 65 -10 42z"/>
<path d="M1616 715 c-3 -8 0 -15 7 -15 7 0 29 -8 49 -19 36 -18 48 -18 48 1 0
7 -81 48 -95 48 -1 0 -5 -7 -9 -15z"/>
<path d="M438 703 c7 -3 16 -2 19 1 4 3 -2 6 -13 5 -11 0 -14 -3 -6 -6z"/>
<path d="M424 644 c-18 -14 -18 -15 4 -4 12 6 22 13 22 15 0 8 -5 6 -26 -11z"/>
<path d="M490 630 c0 -5 -18 -20 -40 -32 -41 -24 -47 -32 -30 -43 17 -10 80
38 80 63 0 12 -2 22 -5 22 -3 0 -5 -4 -5 -10z"/>
<path d="M380 619 c0 -5 5 -7 10 -4 6 3 10 8 10 11 0 2 -4 4 -10 4 -5 0 -10
-5 -10 -11z"/>
<path d="M1557 606 c-5 -12 0 -16 16 -16 12 0 40 -3 62 -6 36 -6 39 -5 25 9
-8 9 -33 19 -56 23 -33 5 -42 3 -47 -10z"/>
<path d="M972 574 c-29 -20 -28 -52 3 -66 19 -9 22 -14 13 -25 -6 -7 -8 -16
-5 -19 9 -10 60 75 54 90 -11 27 -42 37 -65 20z m43 -29 c0 -13 -8 -21 -22
-23 -17 -3 -23 2 -23 16 0 10 3 22 7 26 13 13 38 1 38 -19z"/>
<path d="M1168 579 c-24 -13 -23 -56 1 -71 15 -9 17 -16 10 -30 -18 -33 9 -19
30 16 26 42 27 72 2 86 -23 12 -22 12 -43 -1z m45 -21 c7 -21 -4 -38 -23 -38
-23 0 -34 16 -26 35 7 18 43 20 49 3z"/>
<path d="M878 573 c7 -3 12 -25 12 -59 0 -30 5 -54 10 -54 6 0 10 27 10 60 0
56 -2 60 -22 59 -13 0 -17 -3 -10 -6z"/>
<path d="M1076 540 c-33 -51 -33 -60 4 -60 17 0 30 -5 30 -12 1 -9 3 -8 9 2 9
18 2 110 -9 110 -4 0 -19 -18 -34 -40z m31 -37 c-3 -3 -13 -3 -21 -1 -15 3
-15 6 1 28 l18 25 3 -23 c2 -13 1 -26 -1 -29z"/>
<path d="M516 477 c-4 -18 8 -37 24 -37 18 0 30 19 23 36 -11 26 -40 26 -47 1z"/>
<path d="M1506 477 c-4 -18 8 -37 24 -37 18 0 30 19 23 36 -11 26 -40 26 -47
1z"/>
<path d="M666 409 c-10 -18 -27 -40 -36 -49 -17 -17 -16 -19 22 -40 45 -25 68
-21 68 15 0 16 6 25 15 25 25 0 17 38 -14 59 -16 12 -31 21 -33 21 -2 0 -12
-14 -22 -31z m58 -8 c7 -10 -22 -37 -30 -28 -9 8 3 37 15 37 5 0 12 -4 15 -9z
m-27 -47 c5 -17 -15 -37 -31 -31 -14 6 -14 10 -4 27 13 20 29 22 35 4z"/>
<path d="M1390 426 c0 -2 7 -6 15 -10 8 -3 15 -1 15 4 0 6 -7 10 -15 10 -8 0
-15 -2 -15 -4z"/>
<path d="M1344 396 c-21 -33 -15 -65 17 -89 25 -18 28 -18 62 -2 41 19 51 36
34 59 -8 11 -17 13 -26 7 -12 -8 -12 -12 -2 -25 16 -19 6 -36 -20 -36 -11 0
-28 14 -39 33 -24 39 -24 41 -4 61 8 9 11 16 5 16 -6 0 -18 -11 -27 -24z"/>
<path d="M769 325 c-26 -24 -44 -46 -41 -49 3 -3 10 1 16 10 16 21 49 7 43
-17 -3 -12 2 -20 15 -25 11 -3 20 -4 21 -2 1 1 0 31 -3 65 l-5 62 -46 -44z
m17 -22 c-10 -10 -19 5 -10 18 6 11 8 11 12 0 2 -7 1 -15 -2 -18z"/>
<path d="M1205 344 c-17 -8 -22 -12 -13 -9 10 2 45 -12 79 -31 33 -20 63 -34
65 -31 12 11 -12 38 -55 60 -43 23 -49 24 -76 11z"/>
<path d="M870 330 c0 -11 3 -20 8 -20 4 0 18 -20 32 -45 14 -25 28 -45 32 -45
16 0 7 39 -18 84 -27 48 -54 61 -54 26z"/>
<path d="M990 270 c0 -50 3 -60 18 -60 14 0 17 9 17 52 0 59 19 75 36 31 9
-22 8 -34 -5 -55 -18 -33 0 -40 27 -10 38 42 4 102 -58 102 l-35 0 0 -60z"/>
<path d="M1106 298 c11 -56 28 -83 54 -86 21 -2 22 -1 8 8 -11 7 -20 30 -24
60 -5 40 -10 50 -25 50 -15 0 -18 -5 -13 -32z"/>
<path d="M1250 239 c0 -5 5 -7 10 -4 6 3 10 8 10 11 0 2 -4 4 -10 4 -5 0 -10
-5 -10 -11z"/>
<path d="M848 233 c7 -3 16 -2 19 1 4 3 -2 6 -13 5 -11 0 -14 -3 -6 -6z"/>
</g>
</svg>
